<svg width={106} height={65} viewBox="0 0 106 65" fill="none" xmlns="http://www.w3.org/2000/svg">
  <path d="M51.541 16.0416V7.29163H54.4577V16.0416H63.2077V18.9583H54.4577V27.7083H51.541V18.9583H42.791V16.0416H51.541Z" fill="black" />
  <path d="M7.056 42.2H10.428L16.536 59H13.428L12.348 56.024H5.148L4.068 59H0.96L7.056 42.2ZM6.216 53.096H11.268L8.736 46.172L6.216 53.096ZM26.8011 41H29.7291V59H26.8011V57.5C26.4171 58.036 25.9331 58.472 25.3491 58.808C24.7651 59.144 24.0891 59.312 23.3211 59.312C22.4491 59.312 21.6331 59.148 20.8731 58.82C20.1131 58.492 19.4411 58.04 18.8571 57.464C18.2811 56.88 17.8291 56.208 17.5011 55.448C17.1731 54.688 17.0091 53.872 17.0091 53C17.0091 52.128 17.1731 51.312 17.5011 50.552C17.8291 49.792 18.2811 49.124 18.8571 48.548C19.4411 47.964 20.1131 47.508 20.8731 47.18C21.6331 46.852 22.4491 46.688 23.3211 46.688C24.0891 46.688 24.7651 46.856 25.3491 47.192C25.9331 47.52 26.4171 47.956 26.8011 48.5V41ZM23.3571 56.492C23.9811 56.492 24.5331 56.336 25.0131 56.024C25.4931 55.712 25.8691 55.292 26.1411 54.764C26.4131 54.228 26.5491 53.64 26.5491 53C26.5491 52.352 26.4131 51.764 26.1411 51.236C25.8691 50.7 25.4891 50.276 25.0011 49.964C24.5211 49.652 23.9731 49.496 23.3571 49.496C22.7411 49.496 22.1771 49.656 21.6651 49.976C21.1611 50.288 20.7571 50.708 20.4531 51.236C20.1571 51.764 20.0091 52.352 20.0091 53C20.0091 53.648 20.1611 54.236 20.4651 54.764C20.7691 55.292 21.1731 55.712 21.6771 56.024C22.1891 56.336 22.7491 56.492 23.3571 56.492ZM41.4964 41H44.4244V59H41.4964V57.5C41.1124 58.036 40.6284 58.472 40.0444 58.808C39.4604 59.144 38.7844 59.312 38.0164 59.312C37.1444 59.312 36.3284 59.148 35.5684 58.82C34.8084 58.492 34.1364 58.04 33.5524 57.464C32.9764 56.88 32.5244 56.208 32.1964 55.448C31.8684 54.688 31.7044 53.872 31.7044 53C31.7044 52.128 31.8684 51.312 32.1964 50.552C32.5244 49.792 32.9764 49.124 33.5524 48.548C34.1364 47.964 34.8084 47.508 35.5684 47.18C36.3284 46.852 37.1444 46.688 38.0164 46.688C38.7844 46.688 39.4604 46.856 40.0444 47.192C40.6284 47.52 41.1124 47.956 41.4964 48.5V41ZM38.0524 56.492C38.6764 56.492 39.2284 56.336 39.7084 56.024C40.1884 55.712 40.5644 55.292 40.8364 54.764C41.1084 54.228 41.2444 53.64 41.2444 53C41.2444 52.352 41.1084 51.764 40.8364 51.236C40.5644 50.7 40.1844 50.276 39.6964 49.964C39.2164 49.652 38.6684 49.496 38.0524 49.496C37.4364 49.496 36.8724 49.656 36.3604 49.976C35.8564 50.288 35.4524 50.708 35.1484 51.236C34.8524 51.764 34.7044 52.352 34.7044 53C34.7044 53.648 34.8564 54.236 35.1604 54.764C35.4644 55.292 35.8684 55.712 36.3724 56.024C36.8844 56.336 37.4444 56.492 38.0524 56.492ZM60.8488 59.312C59.7128 59.312 58.6448 59.088 57.6448 58.64C56.6448 58.184 55.7648 57.556 55.0048 56.756C54.2528 55.956 53.6608 55.032 53.2288 53.984C52.8048 52.928 52.5928 51.8 52.5928 50.6C52.5928 49.392 52.8048 48.264 53.2288 47.216C53.6608 46.16 54.2528 45.236 55.0048 44.444C55.7648 43.644 56.6448 43.02 57.6448 42.572C58.6448 42.116 59.7128 41.888 60.8488 41.888C62.2088 41.888 63.4608 42.204 64.6048 42.836C65.7488 43.46 66.6968 44.296 67.4488 45.344L64.8328 46.748C64.3608 46.164 63.7728 45.696 63.0688 45.344C62.3728 44.992 61.6328 44.816 60.8488 44.816C60.1128 44.816 59.4208 44.968 58.7728 45.272C58.1248 45.568 57.5568 45.984 57.0688 46.52C56.5808 47.048 56.2008 47.664 55.9288 48.368C55.6568 49.064 55.5208 49.808 55.5208 50.6C55.5208 51.4 55.6568 52.148 55.9288 52.844C56.2088 53.54 56.5928 54.156 57.0808 54.692C57.5688 55.22 58.1328 55.636 58.7728 55.94C59.4208 56.236 60.1128 56.384 60.8488 56.384C61.6488 56.384 62.3928 56.208 63.0808 55.856C63.7768 55.496 64.3608 55.024 64.8328 54.44L67.4488 55.856C66.6968 56.896 65.7488 57.732 64.6048 58.364C63.4608 58.996 62.2088 59.312 60.8488 59.312ZM78.1286 47H81.0566V59H78.1286L77.9966 57.512C77.6686 58.048 77.2326 58.484 76.6886 58.82C76.1526 59.148 75.5166 59.312 74.7806 59.312C73.8926 59.312 73.0606 59.144 72.2846 58.808C71.5086 58.472 70.8246 58.008 70.2326 57.416C69.6486 56.824 69.1886 56.14 68.8526 55.364C68.5246 54.588 68.3606 53.756 68.3606 52.868C68.3606 52.012 68.5166 51.208 68.8286 50.456C69.1486 49.704 69.5926 49.044 70.1606 48.476C70.7286 47.908 71.3846 47.464 72.1286 47.144C72.8726 46.824 73.6726 46.664 74.5286 46.664C75.3206 46.664 76.0286 46.84 76.6526 47.192C77.2846 47.544 77.8206 47.992 78.2606 48.536L78.1286 47ZM74.7086 56.492C75.3326 56.492 75.8846 56.336 76.3646 56.024C76.8446 55.712 77.2206 55.292 77.4926 54.764C77.7646 54.228 77.9006 53.64 77.9006 53C77.9006 52.352 77.7646 51.764 77.4926 51.236C77.2206 50.7 76.8406 50.276 76.3526 49.964C75.8726 49.652 75.3246 49.496 74.7086 49.496C74.0926 49.496 73.5286 49.656 73.0166 49.976C72.5126 50.288 72.1086 50.708 71.8046 51.236C71.5086 51.764 71.3606 52.352 71.3606 53C71.3606 53.648 71.5126 54.236 71.8166 54.764C72.1206 55.292 72.5246 55.712 73.0286 56.024C73.5406 56.336 74.1006 56.492 74.7086 56.492ZM83.4598 59L83.4478 47H86.3758L86.3878 48.068C86.7958 47.636 87.2838 47.296 87.8518 47.048C88.4198 46.792 89.0318 46.664 89.6878 46.664C90.1278 46.664 90.5678 46.728 91.0078 46.856L89.8558 49.808C89.5518 49.688 89.2478 49.628 88.9438 49.628C88.4718 49.628 88.0398 49.744 87.6478 49.976C87.2638 50.2 86.9558 50.508 86.7238 50.9C86.4998 51.284 86.3878 51.712 86.3878 52.184V59H83.4598ZM100.864 41H103.792V59H100.864V57.5C100.48 58.036 99.9956 58.472 99.4116 58.808C98.8276 59.144 98.1516 59.312 97.3836 59.312C96.5116 59.312 95.6956 59.148 94.9356 58.82C94.1756 58.492 93.5036 58.04 92.9196 57.464C92.3436 56.88 91.8916 56.208 91.5636 55.448C91.2356 54.688 91.0716 53.872 91.0716 53C91.0716 52.128 91.2356 51.312 91.5636 50.552C91.8916 49.792 92.3436 49.124 92.9196 48.548C93.5036 47.964 94.1756 47.508 94.9356 47.18C95.6956 46.852 96.5116 46.688 97.3836 46.688C98.1516 46.688 98.8276 46.856 99.4116 47.192C99.9956 47.52 100.48 47.956 100.864 48.5V41ZM97.4196 56.492C98.0436 56.492 98.5956 56.336 99.0756 56.024C99.5556 55.712 99.9316 55.292 100.204 54.764C100.476 54.228 100.612 53.64 100.612 53C100.612 52.352 100.476 51.764 100.204 51.236C99.9316 50.7 99.5516 50.276 99.0636 49.964C98.5836 49.652 98.0356 49.496 97.4196 49.496C96.8036 49.496 96.2396 49.656 95.7276 49.976C95.2236 50.288 94.8196 50.708 94.5156 51.236C94.2196 51.764 94.0716 52.352 94.0716 53C94.0716 53.648 94.2236 54.236 94.5276 54.764C94.8316 55.292 95.2356 55.712 95.7396 56.024C96.2516 56.336 96.8116 56.492 97.4196 56.492Z" fill="black" />
</svg>
