<svg width={65} height={64} viewBox="0 0 65 64" fill="none" xmlns="http://www.w3.org/2000/svg">
  <path d="M61.7865 53.543C59.1385 51.502 52.0855 45.866 45.5165 39.091C41.1495 34.586 39.2925 30.074 35.9825 26.661C32.9855 23.569 30.2595 21.766 30.2595 21.766L29.4915 22.558L24.3035 17.21L26.3075 15.143C26.4693 14.9728 26.5595 14.7469 26.5595 14.512C26.5595 14.2772 26.4693 14.0513 26.3075 13.881L25.8935 13.453C25.8935 13.453 31.7895 5.51702 39.2445 7.71202C40.1115 7.96702 40.8815 8.40602 41.1015 8.18202C41.3985 7.87602 40.2625 6.70202 39.5975 6.02002C30.1695 -3.62998 19.7655 7.12402 19.7605 7.13002L19.3945 6.75202C19.3157 6.66915 19.2208 6.60316 19.1157 6.55808C19.0106 6.51299 18.8974 6.48974 18.783 6.48974C18.6687 6.48974 18.5555 6.51299 18.4503 6.55808C18.3452 6.60316 18.2504 6.66915 18.1715 6.75202L8.93453 16.279C8.77131 16.4487 8.68013 16.6751 8.68013 16.9105C8.68013 17.146 8.77131 17.3723 8.93453 17.542C8.93453 17.542 10.0635 19.521 7.09753 19.877C5.90353 20.021 5.15653 20.29 4.73153 20.645C4.68253 20.688 2.75353 22.654 2.75353 22.654C2.59083 22.8238 2.5 23.0499 2.5 23.285C2.5 23.5202 2.59083 23.7462 2.75353 23.916L9.66753 31.048C9.74659 31.1305 9.84152 31.1961 9.94661 31.241C10.0517 31.2858 10.1648 31.3089 10.279 31.3089C10.3933 31.3089 10.5064 31.2858 10.6115 31.241C10.7165 31.1961 10.8115 31.1305 10.8905 31.048C10.8905 31.048 12.7965 29.058 12.8375 29.006C13.1815 28.568 13.4435 27.798 13.5805 26.566C13.9285 23.506 15.8455 24.674 15.8455 24.674C15.9246 24.7565 16.0195 24.8221 16.1246 24.867C16.2297 24.9118 16.3428 24.9349 16.457 24.9349C16.5713 24.9349 16.6844 24.9118 16.7895 24.867C16.8945 24.8221 16.9895 24.7565 17.0685 24.674L19.0725 22.607L24.2595 27.956L23.4915 28.749C23.4915 28.749 25.2375 31.562 28.2375 34.654C31.5465 38.067 35.9185 39.982 40.2855 44.487C46.8525 51.261 52.3185 58.535 54.2995 61.266C54.6645 61.766 54.8795 62 55.1085 62C55.3515 62 55.6115 61.74 56.0805 61.256L58.9295 58.318L61.7775 55.381C62.6905 54.437 62.7845 54.316 61.7865 53.543Z" fill="#022060" />
</svg>

