<svg width={71} height={69} viewBox="0 0 71 69" fill="none" xmlns="http://www.w3.org/2000/svg">
  <path d="M19.9679 0.581919C19.7354 0.581768 19.5032 0.583422 19.2716 0.586731C16.1845 0.630343 13.1864 0.989312 10.493 1.77507C6.18356 3.0323 2.55206 5.49004 1.06129 9.5551C-0.26902 13.1828 0.891052 16.499 3.21962 19.0462C5.54803 21.5934 8.95486 23.65 12.5646 25.7042C16.1744 27.7585 19.9958 29.7905 23.1057 32.052C26.2156 34.3133 28.5547 36.7742 29.4549 39.5852C29.6239 40.1125 29.4964 41.7589 29.166 43.1103C29.0343 43.6486 28.8941 44.1205 28.7675 44.5251L31.4062 45.1618C31.5325 44.7486 31.6689 44.2709 31.7954 43.7535C32.1695 42.2233 32.5703 40.4375 32.033 38.7596C30.864 35.1095 28.033 32.2881 24.6976 29.8628C21.3622 27.4374 17.4635 25.3777 13.9037 23.3519C10.3438 21.3261 7.13159 19.3137 5.21748 17.2198C3.30338 15.126 2.59732 13.229 3.60295 10.487C4.73054 7.41196 7.43987 5.48568 11.2511 4.37358C15.0623 3.26163 19.8731 3.07124 24.6239 3.51924C29.3746 3.96739 34.0734 5.0455 37.6774 6.35942C39.233 6.92652 40.5836 7.53964 41.633 8.14269C42.1166 7.78221 42.6276 7.42129 43.1645 7.09901C43.4914 6.90276 43.8322 6.71899 44.1883 6.56033C43.9796 6.4144 43.7675 6.2734 43.5522 6.13745C42.2152 5.29619 40.537 4.52081 38.6048 3.8164C34.7404 2.4076 29.8647 1.29444 24.8782 0.824039C23.2421 0.669744 21.595 0.583422 19.9679 0.581919ZM46.4212 8.74603C46.3668 8.74784 46.3111 8.75175 46.2535 8.75746C45.7931 8.80258 45.2031 9.03236 44.5578 9.41976C43.6374 9.97242 42.6717 10.8071 41.6647 11.5572L51.0562 24.1998L54.1011 23.486C53.4602 18.9236 51.9626 12.5615 47.5535 9.15989C47.1187 8.82438 46.8021 8.73325 46.4212 8.74603ZM54.3616 26.2053L51.7264 26.8231L59.2853 59.0746H62.0656L54.3616 26.2053ZM5.6339 44.2046L5.33839 46.9834C6.21604 47.0138 7.12046 47.0556 8.04698 47.1088L8.32549 44.4909L5.6339 44.2046ZM24.1588 46.1975L23.4084 48.9581L32.474 51.1569L33.3015 48.404L24.1588 46.1975ZM2.07473 49.629C1.93427 49.629 1.90856 49.614 1.69005 49.9153C1.47154 50.2167 1.20927 50.8315 1.02685 51.6454C0.661714 53.2731 0.573288 55.6522 0.71856 58.0289C0.863982 60.4055 1.23468 62.8044 1.69125 64.5269C1.91939 65.388 2.1785 66.0854 2.38122 66.4654C2.42618 66.5498 2.43054 66.5451 2.46393 66.5938H3.86176C3.37719 65.5051 3.127 64.3266 3.12743 63.135C3.12743 58.4168 6.98135 54.563 11.6994 54.563C16.4176 54.563 20.2713 58.4168 20.2713 63.135C20.2718 64.3266 20.0217 65.5051 19.5372 66.5938H33.1493C33.2182 66.503 33.3472 66.295 33.4725 65.9472C33.7432 65.1949 33.9707 63.9834 34.1151 62.6847C34.4038 60.0871 34.4076 57.1195 34.4076 55.9165C34.4076 55.8225 34.36 55.6131 33.9165 55.2256C33.4729 54.838 32.6894 54.3752 31.6605 53.9383C29.6023 53.0643 26.582 52.265 23.1778 51.621C16.3698 50.3331 7.98412 49.629 2.07473 49.629ZM11.6994 57.2699C8.4443 57.2699 5.83436 59.8797 5.83436 63.135C5.83436 66.39 8.4443 69 11.6994 69C14.9546 69 17.5644 66.39 17.5644 63.135C17.5644 59.8797 14.9546 57.2699 11.6994 57.2699ZM58.2531 61.7815L57.2004 63.8869H64.8512L63.7985 61.7815H58.2531ZM51.5515 66.5938V68.6992H70.5V66.5938H51.5515Z" fill="#022060" />
</svg>

