<svg width={71} height={70} viewBox="0 0 71 70" fill="none" xmlns="http://www.w3.org/2000/svg">
  <path d="M55.4788 45.7625C54.9324 45.2192 54.1931 44.9143 53.4226 44.9143C52.6521 44.9143 51.9128 45.2192 51.3663 45.7625L45.358 51.7708C44.9983 52.1334 44.74 52.5841 44.6091 53.0778C44.4782 53.5715 44.4793 54.0909 44.6122 54.584C44.7451 55.0772 45.0051 55.5268 45.3664 55.8879C45.7276 56.249 46.1773 56.5089 46.6705 56.6416L47.4288 56.8458L45.0955 59.1791C44.8221 59.4503 44.6051 59.7729 44.4571 60.1283C44.309 60.4837 44.2328 60.8649 44.2328 61.25C44.2328 61.635 44.309 62.0162 44.4571 62.3717C44.6051 62.7271 44.8221 63.0497 45.0955 63.3208C45.3666 63.5942 45.6892 63.8112 46.0447 63.9593C46.4001 64.1073 46.7813 64.1836 47.1663 64.1836C47.5514 64.1836 47.9326 64.1073 48.288 63.9593C48.6434 63.8112 48.966 63.5942 49.2372 63.3208L55.0705 57.4875C55.4505 57.1164 55.7219 56.6487 55.8556 56.1347C55.9892 55.6207 55.98 55.0799 55.8288 54.5708C55.6969 54.0737 55.4359 53.6203 55.0722 53.2566C54.7085 52.893 54.2551 52.6319 53.758 52.5L52.9997 52.325L55.4205 49.875C55.9716 49.3363 56.287 48.6013 56.2979 47.8308C56.3089 47.0602 56.0144 46.3166 55.4788 45.7625ZM23.5705 56.8458L24.3288 56.6416C24.8221 56.5089 25.2718 56.249 25.633 55.8879C25.9942 55.5268 26.2543 55.0772 26.3872 54.584C26.52 54.0909 26.5211 53.5715 26.3902 53.0778C26.2593 52.5841 26.0011 52.1334 25.6413 51.7708L19.633 45.7625C19.075 45.2847 18.3573 45.035 17.6233 45.0633C16.8892 45.0917 16.1929 45.396 15.6734 45.9154C15.154 46.4349 14.8497 47.1312 14.8214 47.8652C14.793 48.5993 15.0427 49.317 15.5205 49.875L17.9413 52.325L17.183 52.5C16.6859 52.6319 16.2325 52.893 15.8688 53.2566C15.5052 53.6203 15.2441 54.0737 15.1122 54.5708C14.9611 55.0799 14.9518 55.6207 15.0855 56.1347C15.2191 56.6487 15.4905 57.1164 15.8705 57.4875L21.7038 63.3208C21.975 63.5942 22.2976 63.8112 22.653 63.9593C23.0084 64.1073 23.3896 64.1836 23.7747 64.1836C24.1597 64.1836 24.5409 64.1073 24.8964 63.9593C25.2518 63.8112 25.5744 63.5942 25.8455 63.3208C26.1189 63.0497 26.3359 62.7271 26.4839 62.3717C26.632 62.0162 26.7083 61.635 26.7083 61.25C26.7083 60.8649 26.632 60.4837 26.4839 60.1283C26.3359 59.7729 26.1189 59.4503 25.8455 59.1791L23.5705 56.8458ZM61.7497 11.6666C60.9761 11.6666 60.2343 11.9739 59.6873 12.5209C59.1403 13.0679 58.833 13.8098 58.833 14.5833H50.083C50.083 12.2627 49.1611 10.0371 47.5202 8.39613C45.8792 6.75519 43.6536 5.83331 41.333 5.83331H29.6663C27.3457 5.83331 25.1201 6.75519 23.4792 8.39613C21.8382 10.0371 20.9163 12.2627 20.9163 14.5833H12.1663C12.1663 13.8098 11.8591 13.0679 11.3121 12.5209C10.7651 11.9739 10.0232 11.6666 9.24967 11.6666C8.47613 11.6666 7.73426 11.9739 7.18728 12.5209C6.6403 13.0679 6.33301 13.8098 6.33301 14.5833V20.4166C6.33301 21.1902 6.6403 21.9321 7.18728 22.479C7.73426 23.026 8.47613 23.3333 9.24967 23.3333C10.0232 23.3333 10.7651 23.026 11.3121 22.479C11.8591 21.9321 12.1663 21.1902 12.1663 20.4166H20.9163V26.25C20.9154 28.0602 21.4759 29.8262 22.5207 31.3045C23.5654 32.7828 25.043 33.9007 26.7497 34.5041V37.9166C26.7497 39.4637 27.3643 40.9475 28.4582 42.0414C29.5522 43.1354 31.0359 43.75 32.583 43.75V61.25C32.583 62.0235 32.8903 62.7654 33.4373 63.3124C33.9843 63.8594 34.7261 64.1666 35.4997 64.1666C36.2732 64.1666 37.0151 63.8594 37.5621 63.3124C38.109 62.7654 38.4163 62.0235 38.4163 61.25V43.75C39.9634 43.75 41.4472 43.1354 42.5411 42.0414C43.6351 40.9475 44.2497 39.4637 44.2497 37.9166V34.5041C45.9564 33.9007 47.4339 32.7828 48.4787 31.3045C49.5234 29.8262 50.084 28.0602 50.083 26.25V20.4166H58.833C58.833 21.1902 59.1403 21.9321 59.6873 22.479C60.2343 23.026 60.9761 23.3333 61.7497 23.3333C62.5232 23.3333 63.2651 23.026 63.8121 22.479C64.3591 21.9321 64.6663 21.1902 64.6663 20.4166V14.5833C64.6663 13.8098 64.3591 13.0679 63.8121 12.5209C63.2651 11.9739 62.5232 11.6666 61.7497 11.6666ZM44.2497 26.25C44.2497 27.0235 43.9424 27.7654 43.3954 28.3124C42.8484 28.8594 42.1066 29.1666 41.333 29.1666C40.5595 29.1666 39.8176 29.4739 39.2706 30.0209C38.7236 30.5679 38.4163 31.3098 38.4163 32.0833V37.9166H32.583V32.0833C32.583 31.3098 32.2757 30.5679 31.7287 30.0209C31.1818 29.4739 30.4399 29.1666 29.6663 29.1666C28.8928 29.1666 28.1509 28.8594 27.6039 28.3124C27.057 27.7654 26.7497 27.0235 26.7497 26.25V14.5833C26.7497 13.8098 27.057 13.0679 27.6039 12.5209C28.1509 11.9739 28.8928 11.6666 29.6663 11.6666H41.333C42.1066 11.6666 42.8484 11.9739 43.3954 12.5209C43.9424 13.0679 44.2497 13.8098 44.2497 14.5833V26.25ZM35.4997 17.5C34.7261 17.5 33.9843 17.8073 33.4373 18.3543C32.8903 18.9012 32.583 19.6431 32.583 20.4166V23.3333C32.583 24.1069 32.8903 24.8487 33.4373 25.3957C33.9843 25.9427 34.7261 26.25 35.4997 26.25C36.2732 26.25 37.0151 25.9427 37.5621 25.3957C38.109 24.8487 38.4163 24.1069 38.4163 23.3333V20.4166C38.4163 19.6431 38.109 18.9012 37.5621 18.3543C37.0151 17.8073 36.2732 17.5 35.4997 17.5Z" fill="#022060" />
</svg>

