<svg width={70} height={70} viewBox="0 0 70 70" fill="none" xmlns="http://www.w3.org/2000/svg">
  <path d="M61.2503 40.8333C61.2503 39.2292 59.9378 37.9167 58.3337 37.9167H52.5003V43.75H58.3337C59.9378 43.75 61.2503 42.4375 61.2503 40.8333ZM58.3337 49.5833H52.5003V55.4167H58.3337C59.9378 55.4167 61.2503 54.1042 61.2503 52.5C61.2503 50.8958 59.9378 49.5833 58.3337 49.5833ZM35.0003 40.8333H29.167V52.5H35.0003C35.0003 55.7083 37.6253 58.3333 40.8337 58.3333H49.5837V35H40.8337C37.6253 35 35.0003 37.625 35.0003 40.8333Z" fill="#022060" />
  <path d="M14.5833 37.9167C14.5833 34.7084 17.2083 32.0834 20.4167 32.0834H24.7917C30.4208 32.0834 35 27.5042 35 21.875C35 16.2459 30.4208 11.6667 24.7917 11.6667H14.5833C12.9792 11.6667 11.6667 12.9792 11.6667 14.5834C11.6667 16.1875 12.9792 17.5 14.5833 17.5H24.7917C27.2125 17.5 29.1667 19.4542 29.1667 21.875C29.1667 24.2959 27.2125 26.25 24.7917 26.25H20.4167C13.9708 26.25 8.75 31.4709 8.75 37.9167C8.75 44.3625 13.9708 49.5834 20.4167 49.5834H26.25V43.75H20.4167C17.2083 43.75 14.5833 41.125 14.5833 37.9167Z" fill="#022060" />
</svg>

