<svg width="50" height="49" viewBox="0 0 50 49" fill="none" xmlns="http://www.w3.org/2000/svg">
<rect width="50" height="48.4375" rx="24.2188" fill="#01143C"/>
<path d="M27.6178 30.1563L36.4413 39.5313L39.5443 36.1563L30.7208 26.7813L27.6178 30.1563ZM33.0884 22.0313C32.5149 22.0313 31.8972 21.9531 31.4119 21.7344L14.6619 39.4531L11.559 36.1563L22.4561 24.5938L19.8531 21.8125L18.7943 22.9063L16.6619 20.7031V25.1719L15.6325 26.2656L10.4561 20.7031L11.4855 19.6094H15.6178L13.559 17.4063L18.7943 11.8438C19.201 11.4093 19.6845 11.0646 20.217 10.8293C20.7495 10.5941 21.3205 10.473 21.8972 10.473C22.4739 10.473 23.045 10.5941 23.5775 10.8293C24.11 11.0646 24.5935 11.4093 25.0002 11.8438L21.8972 15.2188L23.9708 17.4063L22.9266 18.5156L25.559 21.2969L28.2355 18.3594C28.0296 17.8438 27.9413 17.1875 27.9413 16.6094C27.9355 15.888 28.0644 15.1726 28.3207 14.5045C28.5769 13.8365 28.9553 13.2291 29.4341 12.7176C29.9128 12.206 30.4823 11.8005 31.1096 11.5244C31.7369 11.2484 32.4095 11.1073 33.0884 11.1094C33.9561 11.1094 34.7208 11.3281 35.4119 11.7656L31.4855 15.9375L33.6913 18.2813L37.6178 14.1094C38.0296 14.8438 38.2355 15.625 38.2355 16.6094C38.2355 19.6094 35.9561 22.0313 33.0884 22.0313Z" fill="white"/>
</svg>
