<svg width={70} height={70} viewBox="0 0 70 70" fill="none" xmlns="http://www.w3.org/2000/svg">
  <path d="M11.6667 8.75H58.3333C59.1069 8.75 59.8488 9.05729 60.3957 9.60427C60.9427 10.1513 61.25 10.8931 61.25 11.6667V26.25C61.25 27.0235 60.9427 27.7654 60.3957 28.3124C59.8488 28.8594 59.1069 29.1667 58.3333 29.1667H11.6667C10.8931 29.1667 10.1513 28.8594 9.60427 28.3124C9.05729 27.7654 8.75 27.0235 8.75 26.25V11.6667C8.75 10.8931 9.05729 10.1513 9.60427 9.60427C10.1513 9.05729 10.8931 8.75 11.6667 8.75ZM17.5 35H35C35.7735 35 36.5154 35.3073 37.0624 35.8543C37.6094 36.4013 37.9167 37.1431 37.9167 37.9167V46.6667H40.8333V64.1667H29.1667V46.6667H32.0833V40.8333H14.5833C13.8098 40.8333 13.0679 40.526 12.5209 39.9791C11.974 39.4321 11.6667 38.6902 11.6667 37.9167V32.0833H17.5V35ZM51.7183 40.0517L56.875 34.895L62.0317 40.0517C63.0512 41.0715 63.7455 42.3708 64.0267 43.7851C64.3079 45.1995 64.1634 46.6656 63.6114 47.9978C63.0595 49.3301 62.1249 50.4688 60.9258 51.2699C59.7268 52.071 58.3171 52.4986 56.875 52.4986C55.4329 52.4986 54.0232 52.071 52.8242 51.2699C51.6251 50.4688 50.6905 49.3301 50.1386 47.9978C49.5866 46.6656 49.4421 45.1995 49.7233 43.7851C50.0045 42.3708 50.6988 41.0715 51.7183 40.0517Z" fill="#022060" />
</svg>

