<svg width={68} height={67} viewBox="0 0 68 67" fill="none" xmlns="http://www.w3.org/2000/svg">
  <path d="M62.101 59.4906C62.101 56.8187 57.2261 49.3509 57.2261 49.3509C57.2261 49.3509 52.2774 56.8187 52.2774 59.4906C52.2774 62.1572 54.4777 64.32 57.1899 64.32C59.9007 64.32 62.101 62.1572 62.101 59.4906ZM26.8523 17.6491H17.0287V7.96495H19.7074V2.67999H1.83984V7.96495H4.51984V22.9328C4.51984 26.8241 7.71976 29.9771 11.6661 29.9771H26.8523V32.6196H32.2136V15.0093H26.8523V17.6491ZM63.4772 39.6627V24.6949C63.4772 20.8048 60.2786 17.6505 56.3363 17.6505H41.1474V15.0107H35.7861V32.6223H41.1474V29.9785H50.9723V39.6627H48.2963V44.9476H66.1598V39.6627H63.4772Z" fill="#022060" />
</svg>

