<svg width="30" height="30" viewBox="0 0 30 30" fill="none" xmlns="http://www.w3.org/2000/svg">
<path d="M17.6178 20.1563L26.4413 29.5313L29.5443 26.1563L20.7208 16.7813L17.6178 20.1563ZM23.0884 12.0313C22.5149 12.0313 21.8972 11.9531 21.4119 11.7344L4.66194 29.4531L1.559 26.1563L12.4561 14.5938L9.85311 11.8125L8.79429 12.9063L6.66194 10.7031V15.1719L5.63253 16.2656L0.456055 10.7031L1.48547 9.60939H5.61782L3.559 7.40627L8.79429 1.84377C9.20098 1.40932 9.68449 1.06457 10.217 0.829317C10.7495 0.594067 11.3205 0.472961 11.8972 0.472961C12.4739 0.472961 13.045 0.594067 13.5775 0.829317C14.11 1.06457 14.5935 1.40932 15.0002 1.84377L11.8972 5.21877L13.9708 7.40627L12.9266 8.51564L15.559 11.2969L18.2355 8.35939C18.0296 7.84377 17.9413 7.18752 17.9413 6.60939C17.9355 5.88803 18.0644 5.1726 18.3207 4.50455C18.5769 3.8365 18.9553 3.22911 19.4341 2.71755C19.9128 2.206 20.4823 1.80046 21.1096 1.52441C21.7369 1.24836 22.4095 1.1073 23.0884 1.10939C23.9561 1.10939 24.7208 1.32814 25.4119 1.76564L21.4855 5.93752L23.6913 8.28127L27.6178 4.10939C28.0296 4.84377 28.2355 5.62502 28.2355 6.60939C28.2355 9.60939 25.9561 12.0313 23.0884 12.0313Z" fill="white"/>
</svg>
